<?xml version="1.0" encoding="UTF-8" standalone="no"?>
<!DOCTYPE svg PUBLIC "-//W3C//DTD SVG 1.1//EN"
 "http://www.w3.org/Graphics/SVG/1.1/DTD/svg11.dtd">
<!-- Generated by graphviz version 2.43.0 (0)
 -->
<!-- Title: %3 Pages: 1 -->
<svg width="725pt" height="314pt"
 viewBox="0.00 0.00 725.00 314.00" xmlns="http://www.w3.org/2000/svg" xmlns:xlink="http://www.w3.org/1999/xlink">
<g id="graph0" class="graph" transform="scale(1 1) rotate(0) translate(4 310)">
<title>%3</title>
<polygon fill="white" stroke="transparent" points="-4,4 -4,-310 721,-310 721,4 -4,4"/>
<text text-anchor="middle" x="358.5" y="-7.8" font-family="Times-Roman" font-size="14.00">Staging workflow</text>
<!-- small changes -->
<g id="node1" class="node">
<title>small changes</title>
<text text-anchor="middle" x="58" y="-284.3" font-family="Times-Roman" font-size="14.00">small changes</text>
</g>
<!-- master -->
<g id="node5" class="node">
<title>master</title>
<ellipse fill="none" stroke="black" cx="136" cy="-215" rx="42.49" ry="18"/>
<text text-anchor="middle" x="136" y="-211.3" font-family="Times-Roman" font-size="14.00">master</text>
</g>
<!-- small changes&#45;&gt;master -->
<g id="edge1" class="edge">
<title>small changes&#45;&gt;master</title>
<path fill="none" stroke="black" d="M76.88,-269.81C87.19,-260.43 100.07,-248.71 111.18,-238.6"/>
<polygon fill="black" stroke="black" points="113.85,-240.9 118.89,-231.58 109.14,-235.72 113.85,-240.9"/>
</g>
<!-- mass&#45;rebuilds and other large changes -->
<g id="node2" class="node">
<title>mass&#45;rebuilds and other large changes</title>
<text text-anchor="middle" x="573" y="-124.3" font-family="Times-Roman" font-size="14.00">mass&#45;rebuilds and other large changes</text>
</g>
<!-- staging -->
<g id="node6" class="node">
<title>staging</title>
<ellipse fill="none" stroke="black" cx="430" cy="-41" rx="44.39" ry="18"/>
<text text-anchor="middle" x="430" y="-37.3" font-family="Times-Roman" font-size="14.00">staging</text>
</g>
<!-- mass&#45;rebuilds and other large changes&#45;&gt;staging -->
<g id="edge2" class="edge">
<title>mass&#45;rebuilds and other large changes&#45;&gt;staging</title>
<path fill="none" stroke="black" d="M572.33,-109.55C571.01,-98.81 567.58,-85.51 559,-77 539.29,-57.45 509.84,-48.53 484.05,-44.57"/>
<polygon fill="black" stroke="black" points="484.37,-41.08 474,-43.24 483.46,-48.02 484.37,-41.08"/>
</g>
<!-- critical security fixes -->
<g id="node3" class="node">
<title>critical security fixes</title>
<text text-anchor="middle" x="214" y="-284.3" font-family="Times-Roman" font-size="14.00">critical security fixes</text>
</g>
<!-- critical security fixes&#45;&gt;master -->
<g id="edge3" class="edge">
<title>critical security fixes&#45;&gt;master</title>
<path fill="none" stroke="black" d="M195.12,-269.81C184.81,-260.43 171.93,-248.71 160.82,-238.6"/>
<polygon fill="black" stroke="black" points="162.86,-235.72 153.11,-231.58 158.15,-240.9 162.86,-235.72"/>
</g>
<!-- broken staging&#45;next fixes -->
<g id="node4" class="node">
<title>broken staging&#45;next fixes</title>
<text text-anchor="middle" x="403" y="-211.3" font-family="Times-Roman" font-size="14.00">broken staging&#45;next fixes</text>
</g>
<!-- staging&#45;next -->
<g id="node7" class="node">
<title>staging&#45;next</title>
<ellipse fill="none" stroke="black" cx="266" cy="-128" rx="67.69" ry="18"/>
<text text-anchor="middle" x="266" y="-124.3" font-family="Times-Roman" font-size="14.00">staging&#45;next</text>
</g>
<!-- broken staging&#45;next fixes&#45;&gt;staging&#45;next -->
<g id="edge4" class="edge">
<title>broken staging&#45;next fixes&#45;&gt;staging&#45;next</title>
<path fill="none" stroke="black" d="M399.02,-196.98C395.66,-186.13 389.78,-172.56 380,-164 367.1,-152.72 350.63,-145.07 334.25,-139.89"/>
<polygon fill="black" stroke="black" points="335.21,-136.53 324.63,-137.12 333.27,-143.25 335.21,-136.53"/>
</g>
<!-- master&#45;&gt;staging&#45;next -->
<g id="edge7" class="edge">
<title>master&#45;&gt;staging&#45;next</title>
<path fill="none" stroke="#5f5ee8" d="M95.3,-209.91C53.74,-204.16 -1.57,-191.19 22,-164 43.24,-139.49 124.86,-131.74 187.91,-129.49"/>
<polygon fill="#5f5ee8" stroke="#5f5ee8" points="188.37,-132.97 198.26,-129.16 188.15,-125.98 188.37,-132.97"/>
<text text-anchor="middle" x="131" y="-167.8" font-family="Times-Roman" font-size="14.00" fill="#5f5ee8">every six hours (GitHub Action)</text>
</g>
<!-- staging&#45;&gt;staging&#45;next -->
<g id="edge6" class="edge">
<title>staging&#45;&gt;staging&#45;next</title>
<path fill="none" stroke="#e85eb0" d="M426.54,-59.19C423.47,-70.11 417.87,-83.7 408,-92 389.38,-107.65 364.8,-116.49 341.34,-121.42"/>
<polygon fill="#e85eb0" stroke="#e85eb0" points="340.55,-118.01 331.38,-123.31 341.85,-124.89 340.55,-118.01"/>
<text text-anchor="middle" x="482" y="-80.8" font-family="Times-Roman" font-size="14.00" fill="#e85eb0">stabilization starts</text>
</g>
<!-- staging&#45;next&#45;&gt;master -->
<g id="edge5" class="edge">
<title>staging&#45;next&#45;&gt;master</title>
<path fill="none" stroke="#e85eb0" d="M262.2,-146.44C259.01,-157.18 253.43,-170.48 244,-179 228.05,-193.41 206.09,-201.9 186.13,-206.89"/>
<polygon fill="#e85eb0" stroke="#e85eb0" points="185.2,-203.51 176.22,-209.13 186.75,-210.34 185.2,-203.51"/>
<text text-anchor="middle" x="315" y="-167.8" font-family="Times-Roman" font-size="14.00" fill="#e85eb0">stabilization ends</text>
</g>
<!-- staging&#45;next&#45;&gt;staging -->
<g id="edge8" class="edge">
<title>staging&#45;next&#45;&gt;staging</title>
<path fill="none" stroke="#5f5ee8" d="M219.02,-115.06C194.22,-106.51 171.62,-93.58 186,-77 210,-49.32 311.04,-43.01 375.34,-41.86"/>
<polygon fill="#5f5ee8" stroke="#5f5ee8" points="375.76,-45.36 385.71,-41.72 375.66,-38.36 375.76,-45.36"/>
<text text-anchor="middle" x="295" y="-80.8" font-family="Times-Roman" font-size="14.00" fill="#5f5ee8">every six hours (GitHub Action)</text>
</g>
</g>
</svg>
